<svg width="40" height="40" viewBox="0 0 40 40" fill="none" xmlns="http://www.w3.org/2000/svg">
<g clip-path="url(#clip0_8_82)">
<path d="M31.2473 40C28.8278 40 26.766 39.1471 25.062 37.4414C23.3579 35.7357 22.5059 33.6719 22.5059 31.25C22.5059 28.8281 23.3579 26.7643 25.062 25.0586C26.766 23.3529 28.8278 22.5 31.2473 22.5C33.6669 22.5 35.7286 23.3529 37.4327 25.0586C39.1368 26.7643 39.9888 28.8281 39.9888 31.25C39.9888 33.6719 39.1368 35.7357 37.4327 37.4414C35.7286 39.1471 33.6669 40 31.2473 40ZM36.2425 30H32.4961V26.25C32.4961 25.9115 32.3725 25.6185 32.1254 25.3711C31.8782 25.1237 31.5856 25 31.2473 25C30.9091 25 30.6164 25.1237 30.3693 25.3711C30.1221 25.6185 29.9986 25.9115 29.9986 26.25V31.25C29.9986 31.5625 30.0961 31.8294 30.2912 32.0508C30.4864 32.2721 30.727 32.4089 31.0132 32.4609C31.0652 32.487 31.1433 32.5 31.2473 32.5H36.2425C36.5807 32.5 36.8734 32.3763 37.1205 32.1289C37.3677 31.8815 37.4912 31.5885 37.4912 31.25C37.4912 30.9115 37.3677 30.6185 37.1205 30.3711C36.8734 30.1237 36.5807 30 36.2425 30ZM18.7595 32.5H11.2669C10.9286 32.5 10.636 32.3763 10.3888 32.1289C10.1417 31.8815 10.0181 31.5885 10.0181 31.25C10.0181 30.9115 10.1417 30.6185 10.3888 30.3711C10.636 30.1237 10.9286 30 11.2669 30H18.7595C19.0977 30 19.3904 30.1237 19.6376 30.3711C19.8847 30.6185 20.0083 30.9115 20.0083 31.25C20.0083 31.5885 19.8847 31.8815 19.6376 32.1289C19.3904 32.3763 19.0977 32.5 18.7595 32.5ZM11.2669 25H18.7595C19.0977 25 19.3904 25.1237 19.6376 25.3711C19.8847 25.6185 20.0083 25.9115 20.0083 26.25C20.0083 26.5885 19.8847 26.8815 19.6376 27.1289C19.3904 27.3763 19.0977 27.5 18.7595 27.5H11.2669C10.9286 27.5 10.636 27.3763 10.3888 27.1289C10.1417 26.8815 10.0181 26.5885 10.0181 26.25C10.0181 25.9115 10.1417 25.6185 10.3888 25.3711C10.636 25.1237 10.9286 25 11.2669 25ZM23.7547 22.5H11.2669C10.9286 22.5 10.636 22.3763 10.3888 22.1289C10.1417 21.8815 10.0181 21.5885 10.0181 21.25C10.0181 20.9115 10.1417 20.6185 10.3888 20.3711C10.636 20.1237 10.9286 20 11.2669 20H23.7547C24.0929 20 24.3856 20.1237 24.6327 20.3711C24.8799 20.6185 25.0034 20.9115 25.0034 21.25C25.0034 21.5885 24.8799 21.8815 24.6327 22.1289C24.3856 22.3763 24.0929 22.5 23.7547 22.5ZM28.7498 17.5H11.2669C10.9286 17.5 10.636 17.3763 10.3888 17.1289C10.1417 16.8815 10.0181 16.5885 10.0181 16.25C10.0181 15.9115 10.1417 15.6185 10.3888 15.3711C10.636 15.1237 10.9286 15 11.2669 15H28.7498C29.088 15 29.3807 15.1237 29.6278 15.3711C29.875 15.6185 29.9986 15.9115 29.9986 16.25C29.9986 16.5885 29.875 16.8815 29.6278 17.1289C29.3807 17.3763 29.088 17.5 28.7498 17.5ZM28.7498 7.5H11.2669C10.9286 7.5 10.636 7.3763 10.3888 7.12891C10.1417 6.88151 10.0181 6.58854 10.0181 6.25C10.0181 5.91146 10.1417 5.61849 10.3888 5.37109C10.636 5.1237 10.9286 5 11.2669 5H28.7498C29.088 5 29.3807 5.1237 29.6278 5.37109C29.875 5.61849 29.9986 5.91146 29.9986 6.25C29.9986 6.58854 29.875 6.88151 29.6278 7.12891C29.3807 7.3763 29.088 7.5 28.7498 7.5ZM28.7498 12.5H11.2669C10.9286 12.5 10.636 12.3763 10.3888 12.1289C10.1417 11.8815 10.0181 11.5885 10.0181 11.25C10.0181 10.9115 10.1417 10.6185 10.3888 10.3711C10.636 10.1237 10.9286 10 11.2669 10H28.7498C29.088 10 29.3807 10.1237 29.6278 10.3711C29.875 10.6185 29.9986 10.9115 29.9986 11.25C29.9986 11.5885 29.875 11.8815 29.6278 12.1289C29.3807 12.3763 29.088 12.5 28.7498 12.5ZM32.4961 3.75C32.4961 3.41146 32.3725 3.11849 32.1254 2.87109C31.8782 2.6237 31.5856 2.5 31.2473 2.5H6.27173C5.93352 2.5 5.64084 2.6237 5.39369 2.87109C5.14653 3.11849 5.02295 3.41146 5.02295 3.75V5C5.72539 5 6.31726 5.24089 6.79856 5.72266C7.27986 6.20443 7.52051 6.79688 7.52051 7.5C7.52051 8.20312 7.27986 8.79557 6.79856 9.27734C6.31726 9.75911 5.72539 10 5.02295 10V12.5C5.72539 12.5 6.31726 12.7409 6.79856 13.2227C7.27986 13.7044 7.52051 14.2969 7.52051 15C7.52051 15.7031 7.27986 16.2956 6.79856 16.7773C6.31726 17.2591 5.72539 17.5 5.02295 17.5V20C5.72539 20 6.31726 20.2409 6.79856 20.7227C7.27986 21.2044 7.52051 21.7904 7.52051 22.4805C7.52051 23.1706 7.27986 23.763 6.79856 24.2578C6.31726 24.7526 5.72539 25 5.02295 25V27.5C5.72539 27.5 6.31726 27.7409 6.79856 28.2227C7.27986 28.7044 7.52051 29.2904 7.52051 29.9805C7.52051 30.6706 7.27986 31.263 6.79856 31.7578C6.31726 32.2526 5.72539 32.5 5.02295 32.5V33.75C5.02295 34.0885 5.14653 34.3815 5.39369 34.6289C5.64084 34.8763 5.93352 35 6.27173 35H22.5059V37.5H5.02295C4.34653 37.5 3.76117 37.2526 3.26686 36.7578C2.77255 36.263 2.52539 35.6771 2.52539 35V32.5C1.84897 32.5 1.2636 32.2526 0.769295 31.7578C0.274986 31.263 0.027832 30.6706 0.027832 29.9805C0.027832 29.2904 0.274986 28.7044 0.769295 28.2227C1.2636 27.7409 1.84897 27.5 2.52539 27.5V25C1.84897 25 1.2636 24.7526 0.769295 24.2578C0.274986 23.763 0.027832 23.1706 0.027832 22.4805C0.027832 21.7904 0.274986 21.2044 0.769295 20.7227C1.2636 20.2409 1.84897 20 2.52539 20V17.5C1.84897 17.5 1.2636 17.2591 0.769295 16.7773C0.274986 16.2956 0.027832 15.7031 0.027832 15C0.027832 14.2969 0.274986 13.7044 0.769295 13.2227C1.2636 12.7409 1.84897 12.5 2.52539 12.5V10C1.84897 10 1.2636 9.75911 0.769295 9.27734C0.274986 8.79557 0.027832 8.20312 0.027832 7.5C0.027832 6.79688 0.274986 6.20443 0.769295 5.72266C1.2636 5.24089 1.84897 5 2.52539 5V2.5C2.52539 1.79688 2.77255 1.20443 3.26686 0.722656C3.76117 0.240885 4.34653 0 5.02295 0H32.4961C33.1725 0 33.7579 0.240885 34.2522 0.722656C34.7465 1.20443 34.9937 1.79688 34.9937 2.5V20H32.4961V3.75Z" fill="#45979C"/>
</g>
<defs>
<clipPath id="clip0_8_82">
<rect width="40" height="40" fill="white"/>
</clipPath>
</defs>
</svg>
