<svg width="56" height="40" viewBox="0 0 56 40" fill="none" xmlns="http://www.w3.org/2000/svg">
<path d="M29.9276 11.1443H10.0721L8.57651 13.6321C8.13008 14.3748 7.89424 15.225 7.89429 16.0915V30.5026C7.89429 30.8778 7.9682 31.2493 8.11179 31.5959C8.25539 31.9426 8.46586 32.2575 8.73118 32.5228C8.99651 32.7881 9.31149 32.9985 9.65814 33.142C10.0048 33.2855 10.3763 33.3594 10.7515 33.3593H29.2515C30.0092 33.3593 30.7359 33.0583 31.2717 32.5226C31.8075 31.9869 32.1086 31.2603 32.1087 30.5026V16.0915C32.1087 15.2248 31.8726 14.3748 31.4265 13.6321L29.9276 11.1443Z" fill="#92D3F5"/>
<path d="M10.089 6.63879H29.889V11.0371H10.089V6.63879Z" fill="#D0CFCE"/>
<path d="M21.6922 27.7664V23.6858H25.7733V20.8125H21.6922V16.7319H18.8194V20.8125H14.7383V23.6858H18.8194V27.7669L21.6922 27.7664Z" fill="#D22F27"/>
<path d="M18.8194 16.7319V20.8125H14.7383V23.6858H18.8194V27.7669H21.6922V23.6858H25.7733V20.8125H21.6922V16.7319H18.8194Z" stroke="black" stroke-width="1.553" stroke-linecap="round" stroke-linejoin="round"/>
<path d="M29.9445 11.1331H10.0556L8.55785 13.6248C8.11071 14.3687 7.87448 15.2202 7.87451 16.0881V30.5215C7.87444 30.8973 7.94841 31.2694 8.09219 31.6167C8.23598 31.9639 8.44677 32.2794 8.71251 32.5451C8.97826 32.8109 9.29375 33.0217 9.64098 33.1654C9.98821 33.3092 10.3604 33.3832 10.7362 33.3831H29.264C29.6398 33.3832 30.0119 33.3092 30.3592 33.1654C30.7064 33.0217 31.0219 32.8109 31.2876 32.5451C31.5534 32.2794 31.7642 31.9639 31.9079 31.6167C32.0517 31.2694 32.1257 30.8973 32.1256 30.5215V16.0881C32.1255 15.2202 31.8893 14.3687 31.4423 13.6248L29.9445 11.1331Z" stroke="black" stroke-width="1.766" stroke-linecap="round" stroke-linejoin="round"/>
<path d="M10.0781 6.61639H29.9115V11.0214H10.0781V6.61639Z" stroke="black" stroke-width="1.766" stroke-linecap="round" stroke-linejoin="round"/>
<path d="M13.3673 6.61639V11.0219" stroke="black" stroke-width="1.766" stroke-linecap="round" stroke-linejoin="round"/>
<path d="M16.683 6.61639V11.0219" stroke="black" stroke-width="1.766" stroke-linecap="round" stroke-linejoin="round"/>
<path d="M20 6.61639V11.0219" stroke="black" stroke-width="1.766" stroke-linecap="round" stroke-linejoin="round"/>
<path d="M23.317 6.61639V11.0219" stroke="black" stroke-width="1.766" stroke-linecap="round" stroke-linejoin="round"/>
<path d="M26.634 6.61639V11.0219" stroke="black" stroke-width="1.766" stroke-linecap="round" stroke-linejoin="round"/>
<g clip-path="url(#clip0_8_55)">
<path d="M43.5 25L49.8 18.7C50.2 18.3 50.8 18 51.5 18C52.2 18 52.8 18.3 53.3 18.7C54.3 19.7 54.3 21.3 53.3 22.2L50.5 25H51.9L53.9 23C55.3 21.6 55.3 19.4 53.9 18.1C53.2 17.4 52.3 17.1 51.4 17.1C50.5 17.1 49.7 17.3 49 18L42.7 24.4C42.4 24.6 42.2 24.9 42 25.3C42.5 25.1 43 25 43.5 25Z" fill="#45979C"/>
<path d="M47.3 22.6L44.9 25H49.6L47.3 22.6Z" fill="#45979C"/>
<path d="M52.5 26H43.5C41.6 26 40 27.6 40 29.5C40 31.4 41.6 33 43.5 33H52.5C54.4 33 56 31.4 56 29.5C56 27.6 54.4 26 52.5 26ZM52.5 32H48V28H43.5C42.4 28 41.5 28.6 41 29.2C41.2 28 42.2 27 43.5 27H52.5C53.9 27 55 28.1 55 29.5C55 30.9 53.9 32 52.5 32Z" fill="#45979C"/>
</g>
<defs>
<clipPath id="clip0_8_55">
<rect width="16" height="16" fill="white" transform="translate(40 17)"/>
</clipPath>
</defs>
</svg>
