<svg width="40" height="40" viewBox="0 0 40 40" fill="none" xmlns="http://www.w3.org/2000/svg">
<g clip-path="url(#clip0_8_76)">
<path d="M16.6668 5L13.3335 8.33333V11.6667H8.33349C6.41682 11.6667 5.20015 13.3333 5.00015 15L3.33349 31.6667C3.13349 33.3333 4.23349 35 6.66682 35H33.3335C35.7668 35 36.8668 33.3333 36.6668 31.6667L35.0002 15C34.8002 13.3333 33.4335 11.6667 31.6668 11.6667H26.6668V8.33333L23.3335 5H16.6668ZM16.6668 8.33333H23.3335V11.6667H16.6668V8.33333ZM18.3335 16.6667H21.6668V21.6667H26.6668V25H21.6668V30H18.3335V25H13.3335V21.6667H18.3335V16.6667Z" fill="#FB0707"/>
</g>
<defs>
<clipPath id="clip0_8_76">
<rect width="40" height="40" fill="white"/>
</clipPath>
</defs>
</svg>
